PathFileType	4	(X/Y/Z)	/Users/rkoike/Documents/python/sports2d/webcam_20250606_145141/webcam_20250606_145141_px_person00.trc
DataRate	CameraRate	NumFrames	NumMarkers	Units	OrigDataRate	OrigDataStartFrame	OrigNumFrames
30	30	8	22	m	30	1006	4026
Frame#	Time	Hip			RHip			RKnee			RAnkle			RBigToe			RSmallToe			RHeel			LHip			LKnee			LAnkle			LBigToe			LSmallToe			LHeel			Neck			Head			Nose			RShoulder			RElbow			RWrist			LShoulder			LElbow			LWrist			
		X1	Y1	Z1	X2	Y2	Z2	X3	Y3	Z3	X4	Y4	Z4	X5	Y5	Z5	X6	Y6	Z6	X7	Y7	Z7	X8	Y8	Z8	X9	Y9	Z9	X10	Y10	Z10	X11	Y11	Z11	X12	Y12	Z12	X13	Y13	Z13	X14	Y14	Z14	X15	Y15	Z15	X16	Y16	Z16	X17	Y17	Z17	X18	Y18	Z18	X19	Y19	Z19	X20	Y20	Z20	X21	Y21	Z21	X22	Y22	Z22
1006	33.541664596273286	579.915632306787	788.7290706972916	0.0	465.82504294961655	787.4952300497961	0.0	143.3683080591069	724.7204075957058	0.0	363.94929472419926	775.5311355065215	0.0			0.0	1216.587890625	110.494140625	0.0			0.0	687.7752242275195	787.8060664199846	0.0	668.3876268490444	710.4933380475126	0.0	526.4001899531024	705.9899399932016	0.0	998.1896886353693	75.82591663394123	0.0	1213.8313802083335	156.6647083759308	0.0	548.9843519550169	728.574101995116	0.0	586.758802071213	371.5153809662791	0.0	549.7952268579785	94.69247085492616	0.0	526.6761978049425	248.62267170000453	0.0	400.0174098707435	471.93585759899736	0.0	180.15555612339514	686.3877448253037	0.0	71.07579205502991	458.75429383412455	0.0	816.0228120679459	484.7343913495279	0.0	879.5266165342686	729.0265045511318	0.0	710.3111773475572	724.9213587100888	0.0
1007	33.575006211180124	578.5146588485702	789.465714294491	0.0	460.51611013100813	785.8541962469326	0.0	143.42933149633356	724.7219710138935	0.0	363.94929472419926	775.5311355065215	0.0			0.0	1216.587890625	110.494140625	0.0			0.0	690.1746420721922	787.0864665625286	0.0	668.3876268490444	710.4933380475126	0.0	526.4001899531024	705.9899399932016	0.0	998.1896886353693	75.82591663394123	0.0	1213.8313802083335	156.6647083759308	0.0	548.9843519550169	728.574101995116	0.0	586.0002033957037	373.3166394568699	0.0	552.8848394415423	93.77518379870992	0.0	528.3290747594308	249.51552735932424	0.0	398.854746484045	472.42150193394815	0.0	180.34863767776724	693.417367781989	0.0	89.66839756532377	458.4145106855804	0.0	815.3450795784958	483.7258294435336	0.0	878.7445920408495	730.4518781061023	0.0	705.7384663769616	727.4615554726894	0.0
1008	33.608347826086955	575.1976761383854	791.2693717424615	0.0	450.58291304158047	783.7159726320047	0.0	143.45154946657024	724.7226115789924	0.0	363.94929472419926	775.5311355065215	0.0			0.0	1216.587890625	110.494140625	0.0			0.0	692.23053326521	786.2639404132062	0.0	668.3876268490444	710.4933380475126	0.0	526.4001899531024	705.9899399932016	0.0	998.1896886353693	75.82591663394123	0.0	1213.8313802083335	156.6647083759308	0.0	548.9843519550169	728.574101995116	0.0	585.2370261176894	374.68808352026156	0.0	556.5549542705486	93.05829689811765	0.0	528.3225690907641	249.65424202819807	0.0	397.62357051125986	471.31099317765813	0.0	185.53063744447624	700.4590530490718	0.0	117.40602874552545	473.0263368115006	0.0	814.5676032423524	483.74808240628136	0.0	877.2351166581933	731.6309496605428	0.0	702.1794482895345	731.3305049299886	0.0
1009	33.64168944099379	571.6802724946592	793.176002835501	0.0	440.29733455598443	781.586738163584	0.0	143.4473909906161	724.7225954226737	0.0	363.94929472419926	775.5311355065215	0.0			0.0	1216.587890625	110.494140625	0.0			0.0	694.0756108794908	785.4553946652949	0.0	668.3876268490444	710.4933380475126	0.0	526.4001899531024	705.9899399932016	0.0	998.1896886353693	75.82591663394123	0.0	1213.8313802083335	156.6647083759308	0.0	548.9843519550169	728.574101995116	0.0	584.5197789075055	375.8854309381273	0.0	560.1009974517278	92.43563736191783	0.0	527.9371604035159	249.64056418132412	0.0	396.45125904532335	469.9280291967455	0.0	191.5097050703641	707.0196978373016	0.0	145.35710354415272	490.03202340908473	0.0	813.8091257786581	483.9959237570512	0.0	875.6544201211631	732.6815037091832	0.0	699.0640510581242	735.2342710261684	0.0
1010	33.67503105590062	569.2729652763755	794.4756983653531	0.0	433.20018716065266	780.0818369660576	0.0	143.44302752576286	724.7222703796899	0.0	363.94929472419926	775.5311355065215	0.0			0.0	1216.587890625	110.494140625	0.0			0.0	695.4199347657416	784.8759503860122	0.0	668.3876268490444	710.4933380475126	0.0	526.4001899531024	705.9899399932016	0.0	998.1896886353693	75.82591663394123	0.0	1213.8313802083335	156.6647083759308	0.0	548.9843519550169	728.574101995116	0.0	584.0044238482296	376.7738874446135	0.0	562.6063456511062	91.97788316093063	0.0	527.7553427313254	249.68377287421848	0.0	395.6119068900915	469.0337317449124	0.0	195.51401747736244	711.7187445635029	0.0	164.87088543465666	501.35954538438256	0.0	813.267497784008	484.1120414455662	0.0	874.5607132552391	733.4508537729588	0.0	696.7655652076564	737.9540590596242	0.0
1011	33.70837267080745	568.3349040682517	794.9814954460661	0.0	430.3922201338146	779.4661028816741	0.0	143.44724623324302	724.7215159209717	0.0	363.94929472419926	775.5311355065215	0.0			0.0	1216.587890625	110.494140625	0.0			0.0	696.0027572023516	784.6354720509369	0.0	668.3876268490444	710.4933380475126	0.0	526.4001899531024	705.9899399932016	0.0	998.1896886353693	75.82591663394123	0.0	1213.8313802083335	156.6647083759308	0.0	548.9843519550169	728.574101995116	0.0	583.7866469435903	377.1680116852899	0.0	563.6405765201757	91.77601896899182	0.0	527.7464705763547	249.73448737385547	0.0	395.25937983833586	468.72237342860717	0.0	197.00382069478107	713.7046784733361	0.0	172.74868659030867	505.5395503943518	0.0	813.0421198702514	484.1186522583787	0.0	874.1284735413102	733.7859777356514	0.0	695.7563981244193	739.048860885508	0.0
1012	33.74171428571428	568.3224322080125	794.9883037822801	0.0	430.3349360002635	779.4446281956523	0.0	143.4513449733271	724.7210866088309	0.0	363.94929472419926	775.5311355065215	0.0			0.0	1216.587890625	110.494140625	0.0			0.0	696.0382247505163	784.6258132911331	0.0	668.3876268490444	710.4933380475126	0.0	526.4001899531024	705.9899399932016	0.0	998.1896886353693	75.82591663394123	0.0	1213.8313802083335	156.6647083759308	0.0	548.9843519550169	728.574101995116	0.0	583.7758492459354	377.1956426509811	0.0	563.6815598883942	91.76224271405437	0.0	527.7755867702285	249.75080794222922	0.0	395.2428005124272	468.735650741563	0.0	196.99036995367678	713.8041319654309	0.0	172.98269138403077	505.4860354237224	0.0	813.0325201866258	484.10065339522754	0.0	874.1201183785299	733.8068681318234	0.0	695.6909540164696	739.0798892942784	0.0
1013	33.77505590062111	568.4990317320218	794.8882261725787	0.0	430.8569941145451	779.5534667444906	0.0	143.42959381444493	724.7239272053719	0.0	363.94929472419926	775.5311355065215	0.0			0.0	1216.587890625	110.494140625	0.0			0.0	695.9364546143573	784.6652981885992	0.0	668.3876268490444	710.4933380475126	0.0	526.4001899531024	705.9899399932016	0.0	998.1896886353693	75.82591663394123	0.0	1213.8313802083335	156.6647083759308	0.0	548.9843519550169	728.574101995116	0.0	583.8141961021936	377.1273920541731	0.0	563.4977230550231	91.7972236850618	0.0	527.788479183228	249.74485741153353	0.0	395.3065366155066	468.79882750513576	0.0	196.68745652950406	713.451316155879	0.0	171.51095247996034	504.62123199792774	0.0	813.0735982303223	484.0921810738995	0.0	874.1992952437051	733.7511711938294	0.0	695.8414846701297	738.8779798996112	0.0
